name rise30.6535peak61.5555fall82.9339.mot
datacolumns 19
datarows 29
range 13.04494900000000 13.09161800000000
endheader
time	ground_force1_vx	ground_force1_vy	ground_force1_vz	ground_force1_px	ground_force1_py	ground_force1_pz	ground_force2_vx	ground_force2_vy	ground_force2_vz	ground_force2_px	ground_force2_py	ground_force2_pz	ground_torque1_x	ground_torque1_y	ground_torque1_z	ground_torque2_x	ground_torque2_y	ground_torque2_z	
13.04494900000000	-36.25137700000000	807.60911099999998	45.93480600000000	0.16781200000000	0.00000000000000	0.06844100000000	-4.71117100000000	16.03634800000000	2.43763800000000	0.00000000000000	0.00000000000000	0.00000000000000	0.00000000000000	19.75267200000000	0.00000000000000	0.00000000000000	0.65020300000000	0.00000000000000	
13.04661800000000	-36.55394500000000	805.82903999999996	45.79619900000000	0.16709100000000	0.00000000000000	0.06842000000000	-5.98780000000000	21.34594600000000	3.14471900000000	0.00000000000000	0.00000000000000	0.00000000000000	0.00000000000000	19.65484300000000	0.00000000000000	0.00000000000000	0.84501400000000	0.00000000000000	
13.04828000000000	-36.86312200000000	803.92658500000005	45.63690400000000	0.16636400000000	0.00000000000000	0.06839600000000	-7.29562000000000	27.11819900000000	3.88421600000000	0.39554000000000	0.00000000000000	-0.09601900000000	0.00000000000000	19.55275000000000	0.00000000000000	0.00000000000000	1.88666400000000	0.00000000000000	
13.04994500000000	-37.17937400000000	801.90084100000001	45.45661500000000	0.16562900000000	0.00000000000000	0.06837100000000	-8.58889200000000	33.23245800000000	4.63365800000000	0.39519300000000	0.00000000000000	-0.09657700000000	0.00000000000000	19.44647900000000	0.00000000000000	0.00000000000000	2.26357200000000	0.00000000000000	
13.05161500000000	-37.50313600000000	799.75094500000000	45.25506800000000	0.16488800000000	0.00000000000000	0.06834400000000	-9.82255000000000	39.56178400000000	5.37041000000000	0.39486800000000	0.00000000000000	-0.09709900000000	0.00000000000000	19.33612500000000	0.00000000000000	0.00000000000000	2.63918800000000	0.00000000000000	
13.05327700000000	-37.83481300000000	797.47608000000002	45.03204100000000	0.16414200000000	0.00000000000000	0.06831400000000	-10.95550800000000	45.98338500000000	6.07335000000000	0.39458000000000	0.00000000000000	-0.09758700000000	0.00000000000000	19.22179100000000	0.00000000000000	0.00000000000000	3.00404400000000	0.00000000000000	
13.05494900000000	-38.17477600000000	795.07546700000000	44.78736200000000	0.16339200000000	0.00000000000000	0.06828200000000	-11.95338500000000	52.38783100000000	6.72428700000000	0.39434200000000	0.00000000000000	-0.09804600000000	0.00000000000000	19.10358900000000	0.00000000000000	0.00000000000000	3.34998300000000	0.00000000000000	
13.05661700000000	-38.52335700000000	792.54836299999999	44.52090000000000	0.16263800000000	0.00000000000000	0.06824800000000	-12.79037300000000	58.68607500000000	7.30897100000000	0.39416300000000	0.00000000000000	-0.09847800000000	0.00000000000000	18.98163500000000	0.00000000000000	0.00000000000000	3.67059400000000	0.00000000000000	
13.05827900000000	-38.88085100000000	789.89405699999998	44.23257300000000	0.16188100000000	0.00000000000000	0.06821100000000	-13.45015400000000	64.81380900000001	7.81765000000000	0.39404700000000	0.00000000000000	-0.09888600000000	0.00000000000000	18.85605500000000	0.00000000000000	0.00000000000000	3.96145400000000	0.00000000000000	
13.05994500000000	-39.24751100000000	787.11187299999995	43.92234400000000	0.16112300000000	0.00000000000000	0.06817100000000	-13.92590800000000	70.73310900000000	8.24516000000000	0.39399900000000	0.00000000000000	-0.09927200000000	0.00000000000000	18.72697600000000	0.00000000000000	0.00000000000000	4.22015900000000	0.00000000000000	
13.06161700000000	-39.62354600000000	784.20115799999996	43.59022300000000	0.16036400000000	0.00000000000000	0.06812800000000	-14.21953900000000	76.43163500000000	8.59064100000000	0.39401900000000	0.00000000000000	-0.09963800000000	0.00000000000000	18.59453300000000	0.00000000000000	0.00000000000000	4.44619500000000	0.00000000000000	
13.06327600000000	-40.00911700000000	781.16128700000002	43.23626700000000	0.15960500000000	0.00000000000000	0.06808200000000	-14.34032100000000	81.91986300000001	8.85693000000000	0.39410900000000	0.00000000000000	-0.09998500000000	0.00000000000000	18.45886300000000	0.00000000000000	0.00000000000000	4.64067300000000	0.00000000000000	
13.06494200000000	-40.40434000000000	777.99166000000002	42.86058000000000	0.15884800000000	0.00000000000000	0.06803200000000	-14.30316900000000	87.22690100000000	9.04977100000000	0.39426700000000	0.00000000000000	-0.10031500000000	0.00000000000000	18.32010400000000	0.00000000000000	0.00000000000000	4.80597300000000	0.00000000000000	
13.06661000000000	-40.80927600000000	774.69169699999998	42.46331300000000	0.15809300000000	0.00000000000000	0.06798000000000	-14.12674800000000	92.39551200000000	9.17691300000000	0.39449200000000	0.00000000000000	-0.10063000000000	0.00000000000000	18.17839900000000	0.00000000000000	0.00000000000000	4.94535400000000	0.00000000000000	
13.06828300000000	-41.22393700000000	771.26083800000004	42.04466100000000	0.15734100000000	0.00000000000000	0.06792300000000	-13.83160100000000	97.47686000000000	9.24720500000000	0.39478200000000	0.00000000000000	-0.10093100000000	0.00000000000000	18.03389100000000	0.00000000000000	0.00000000000000	5.06255800000000	0.00000000000000	
13.06995000000000	-41.64827600000000	767.69854399999997	41.60486700000000	0.15659400000000	0.00000000000000	0.06786300000000	-13.43844900000000	102.52548100000000	9.26975300000000	0.39513400000000	0.00000000000000	-0.10121800000000	0.00000000000000	17.88672000000000	0.00000000000000	0.00000000000000	5.16143700000000	0.00000000000000	
13.07161300000000	-42.08219000000000	764.00429099999997	41.14421700000000	0.15585200000000	0.00000000000000	0.06779900000000	-12.96676300000000	107.59482300000001	9.25320800000000	0.39554400000000	0.00000000000000	-0.10149400000000	0.00000000000000	17.73702900000000	0.00000000000000	0.00000000000000	5.24564100000000	0.00000000000000	
13.07328100000000	-42.52551800000000	760.17757400000005	40.66304300000000	0.15511600000000	0.00000000000000	0.06773200000000	-12.43367800000000	112.73362100000000	9.20520500000000	0.39601000000000	0.00000000000000	-0.10175800000000	0.00000000000000	17.58495800000000	0.00000000000000	0.00000000000000	5.31836800000000	0.00000000000000	
13.07494400000000	-42.97803400000000	756.21790399999998	40.16171800000000	0.15438800000000	0.00000000000000	0.06766000000000	-11.85327500000000	117.98323000000001	9.13197800000000	0.39652800000000	0.00000000000000	-0.10201200000000	0.00000000000000	17.43064200000000	0.00000000000000	0.00000000000000	5.38219200000000	0.00000000000000	
13.07662100000000	-43.43945000000000	752.12481000000002	39.64065900000000	0.15366800000000	0.00000000000000	0.06758400000000	-11.23621100000000	123.37595399999999	9.03814900000000	0.39709300000000	0.00000000000000	-0.10225600000000	0.00000000000000	17.27421500000000	0.00000000000000	0.00000000000000	5.43896400000000	0.00000000000000	
13.07828600000000	-43.90941200000000	747.89783699999998	39.10032400000000	0.15295700000000	0.00000000000000	0.06750400000000	-10.58968000000000	128.93432200000001	8.92667400000000	0.39770100000000	0.00000000000000	-0.10249100000000	0.00000000000000	17.11580500000000	0.00000000000000	0.00000000000000	5.48978300000000	0.00000000000000	
13.07994300000000	-44.38750000000000	743.53654500000005	38.54121000000000	0.15225700000000	0.00000000000000	0.06742000000000	-9.91763000000000	134.67119199999999	8.79892300000000	0.39834900000000	0.00000000000000	-0.10271800000000	0.00000000000000	16.95553700000000	0.00000000000000	0.00000000000000	5.53502400000000	0.00000000000000	
13.08161100000000	-44.87322500000000	739.04051800000002	37.96385400000000	0.15156700000000	0.00000000000000	0.06733200000000	-9.22118300000000	140.59051600000001	8.65486400000000	0.39903300000000	0.00000000000000	-0.10293800000000	0.00000000000000	16.79352700000000	0.00000000000000	0.00000000000000	5.57441700000000	0.00000000000000	
13.08327600000000	-45.36602500000000	734.40935400000001	37.36882700000000	0.15088800000000	0.00000000000000	0.06723900000000	-8.49919400000000	146.68860000000001	8.49331800000000	0.39974700000000	0.00000000000000	-0.10315000000000	0.00000000000000	16.62988600000000	0.00000000000000	0.00000000000000	5.60715700000000	0.00000000000000	
13.08494800000000	-45.86527100000000	729.64267700000005	36.75673900000000	0.15022200000000	0.00000000000000	0.06714200000000	-7.74887000000000	152.95566700000001	8.31225600000000	0.40048800000000	0.00000000000000	-0.10335600000000	0.00000000000000	16.46471900000000	0.00000000000000	0.00000000000000	5.63202700000000	0.00000000000000	
13.08661300000000	-46.37026000000000	724.74013300000001	36.12823300000000	0.14956900000000	0.00000000000000	0.06704000000000	-6.96639400000000	159.37754500000000	8.10909900000000	0.40125200000000	0.00000000000000	-0.10355600000000	0.00000000000000	16.29812200000000	0.00000000000000	0.00000000000000	5.64754000000000	0.00000000000000	
13.08828300000000	-46.88021500000000	719.70139400000005	35.48398300000000	0.14893000000000	0.00000000000000	0.06693500000000	-6.14752100000000	165.93733800000001	7.88101000000000	0.40203300000000	0.00000000000000	-0.10375000000000	0.00000000000000	16.13018300000000	0.00000000000000	0.00000000000000	5.65206200000000	0.00000000000000	
13.08995000000000	-47.39428700000000	714.52616599999999	34.82469400000000	0.14830500000000	0.00000000000000	0.06682400000000	-5.28808600000000	172.61696599999999	7.62515400000000	0.40282900000000	0.00000000000000	-0.10393900000000	0.00000000000000	15.96098100000000	0.00000000000000	0.00000000000000	5.64393900000000	0.00000000000000	
13.09161800000000	-47.91155500000000	709.21418700000004	34.15110100000000	0.14769400000000	0.00000000000000	0.06671000000000	-4.38441900000000	179.39846900000001	7.33891000000000	0.40363500000000	0.00000000000000	-0.10412300000000	0.00000000000000	15.79058900000000	0.00000000000000	0.00000000000000	5.62158900000000	0.00000000000000	
